<svg width="1001" height="512" viewBox="0 0 1001 512" fill="none" xmlns="http://www.w3.org/2000/svg">
<line x1="34.4473" y1="26.5576" x2="797.781" y2="26.5575" stroke="#FF7710" stroke-width="23.541"/>
<line x1="91.8145" y1="379.655" x2="798.045" y2="379.655" stroke="#FF7710" stroke-width="23.541"/>
<path d="M798.046 379.658C844.872 379.658 889.78 361.057 922.891 327.946C956.002 294.835 974.604 249.927 974.604 203.101C974.604 156.275 956.002 111.367 922.891 78.2556C889.78 45.1445 844.872 26.543 798.046 26.543" stroke="#FF7710" stroke-width="23.541"/>
<circle cx="974.598" cy="208.986" r="24.7181" fill="#111111" stroke="#FF7710" stroke-width="2.3541"/>
<circle cx="974.595" cy="208.984" r="14.1246" fill="black"/>
<circle cx="974.595" cy="208.984" r="14.1246" fill="white"/>
<circle cx="343.699" cy="26.541" r="24.7181" fill="#111111" stroke="#FF7710" stroke-width="2.3541"/>
<circle cx="343.697" cy="26.5426" r="14.1246" fill="black"/>
<circle cx="343.697" cy="26.5426" r="14.1246" fill="white"/>
<circle cx="343.699" cy="379.658" r="24.7181" fill="#111111" stroke="#FF7710" stroke-width="2.3541"/>
<circle cx="343.697" cy="379.656" r="14.1246" fill="black"/>
<circle cx="343.697" cy="379.656" r="14.1246" fill="white"/>
<circle cx="696.816" cy="26.541" r="24.7181" fill="#111111" stroke="#FF7710" stroke-width="2.3541"/>
<circle cx="696.814" cy="26.5426" r="14.1246" fill="black"/>
<circle cx="696.814" cy="26.5426" r="14.1246" fill="white"/>
<circle cx="696.816" cy="379.647" r="24.7181" fill="#111111" stroke="#FF7710" stroke-width="2.3541"/>
<circle cx="696.814" cy="379.656" r="14.1246" fill="black"/>
<circle cx="696.814" cy="379.656" r="14.1246" fill="white"/>
<path d="M0.000333309 379.656L94.1645 434.022L94.1645 325.291L0.000333309 379.656Z" fill="#FF7710"/>
<path d="M55.7624 89.2188V86.3628L63.5401 78.8585C65.758 76.6406 66.9125 75.3342 66.9125 73.4809C66.9125 71.4301 65.2871 70.1389 63.1452 70.1389C60.8817 70.1389 59.4234 71.5517 59.4386 73.7847H55.6712C55.656 69.6224 58.7854 66.9184 63.1756 66.9184C67.6721 66.9184 70.6951 69.6072 70.7103 73.2986C70.6951 75.7747 69.5102 77.7799 65.1808 81.8663L61.2615 85.7552V85.9071H71.0445V89.2188H55.7624ZM82.62 89.5226C77.3184 89.5226 74.1586 85.421 74.1738 78.2205C74.1586 71.0503 77.3487 66.9184 82.62 66.9184C87.8913 66.9184 91.0662 71.0503 91.0662 78.2205C91.0662 85.4362 87.9065 89.5226 82.62 89.5226ZM78.1539 78.2205C78.1539 83.5069 79.8553 86.1957 82.62 86.2109C85.3696 86.1957 87.0862 83.5069 87.0862 78.2205C87.071 72.9796 85.3696 70.2148 82.62 70.1997C79.8704 70.2148 78.1691 72.9796 78.1539 78.2205ZM94.3778 89.2188V86.3628L102.156 78.8585C104.373 76.6406 105.528 75.3342 105.528 73.4809C105.528 71.4301 103.903 70.1389 101.761 70.1389C99.4972 70.1389 98.0388 71.5517 98.054 73.7847H94.2867C94.2715 69.6224 97.4008 66.9184 101.791 66.9184C106.288 66.9184 109.311 69.6072 109.326 73.2986C109.311 75.7747 108.126 77.7799 103.796 81.8663L99.8769 85.7552V85.9071H109.66V89.2188H94.3778ZM120.932 89.5226C116.541 89.5226 113.306 86.8945 113.184 83.2639H117.043C117.164 85.0412 118.85 86.3173 120.932 86.3325C123.393 86.3173 125.17 84.5399 125.155 82.1094C125.17 79.5877 123.347 77.8103 120.81 77.7951C119.094 77.7799 117.848 78.3876 117.164 79.6788H113.488L114.825 67.2222H127.828V70.5339H118.076L117.407 76.3672H117.62C118.471 75.4102 120.066 74.7114 121.873 74.6962C125.96 74.7114 128.998 77.7496 128.983 81.9878C128.998 86.378 125.686 89.5226 120.932 89.5226Z" fill="#FF7710"/>
<path d="M10.4363 102.686V119.33H7.88449V105.215H7.79254L3.81539 107.812V105.399L7.95346 102.686H10.4363ZM20.5746 119.56C17.1262 119.56 14.6778 117.709 14.5744 114.985H17.1492C17.2411 116.445 18.6895 117.376 20.5516 117.376C22.5632 117.376 24.023 116.284 24.023 114.663C24.023 113.02 22.6551 111.847 20.2757 111.836H18.8504V109.767H20.2757C22.1723 109.778 23.4942 108.721 23.4942 107.123C23.4942 105.605 22.3563 104.571 20.5976 104.571C18.9308 104.571 17.4365 105.502 17.3791 107.008H14.9422C15.0112 104.295 17.517 102.456 20.6206 102.456C23.8965 102.456 25.9541 104.525 25.9311 106.985C25.9541 108.881 24.7816 110.238 22.9885 110.686V110.801C25.2644 111.123 26.5863 112.652 26.5748 114.755C26.5863 117.525 24.023 119.56 20.5746 119.56ZM45.7708 100.686V121.284H43.5639V100.686H45.7708ZM28.8507 115.767C34.3222 113.157 37.0004 109.445 37.4257 104.64H29.8393V102.893H39.6327C39.6327 108.927 37.0694 114.146 30.0002 117.537L28.8507 115.767ZM60.2541 102.226C63.3347 102.238 65.5301 105.042 65.5416 109.445C65.5301 113.893 63.3347 116.698 60.2541 116.686C57.1735 116.698 54.9781 113.893 54.9895 109.445C54.9781 105.042 57.1735 102.238 60.2541 102.226ZM57.0816 109.445C57.0701 112.721 58.3805 114.732 60.2541 114.732C62.1622 114.732 63.4496 112.721 63.4496 109.445C63.4496 106.215 62.1622 104.192 60.2541 104.18C58.3805 104.192 57.0701 106.215 57.0816 109.445ZM68.5992 121.284V100.686H70.7832V108.755H74.0936V110.594H70.7832V121.284H68.5992ZM92.2092 100.686V121.284H90.0022V100.686H92.2092ZM75.2891 115.767C80.7605 113.157 83.4388 109.445 83.8641 104.64H76.2776V102.893H86.0711C86.0711 108.927 83.5078 114.146 76.4386 117.537L75.2891 115.767ZM102.577 105.927C102.554 109.571 104.681 113.307 107.75 114.801L106.394 116.548C104.152 115.376 102.416 113.077 101.508 110.33C100.589 113.249 98.7842 115.721 96.4392 116.939L95.0829 115.169C98.2439 113.652 100.382 109.698 100.393 105.927V102.41H102.577V105.927ZM109.29 121.284V100.686H111.474V108.893H114.785V110.755H111.474V121.284H109.29ZM122.946 106.755C122.934 110.008 125.084 113.64 128.21 115.123L126.969 116.824C124.659 115.721 122.819 113.399 121.888 110.709C120.946 113.64 119.015 116.181 116.67 117.353L115.382 115.629C118.509 114.123 120.773 110.238 120.785 106.755V104.571H116.141V102.755H127.429V104.571H122.946V106.755ZM129.636 121.284V100.686H131.82V108.847H135.13V110.686H131.82V121.284H129.636ZM160.717 116.893V118.709H141.866V116.893H150.165V112.134H144.027V102.341H158.464V112.134H152.326V116.893H160.717ZM146.142 110.41H156.326V104.088H146.142V110.41ZM169.844 103.973C169.844 106.537 171.844 108.904 175.017 109.836L173.913 111.537C171.511 110.801 169.695 109.238 168.752 107.215C167.832 109.387 165.993 111.088 163.522 111.905L162.418 110.18C165.625 109.203 167.626 106.674 167.637 103.973V103.743H163.016V101.973H174.373V103.743H169.844V103.973ZM165.821 121.031V112.801H167.959V115.1H177.132V112.801H179.293V121.031H165.821ZM167.959 119.261H177.132V116.824H167.959V119.261ZM177.109 111.836V100.686H179.293V111.836H177.109Z" fill="#C5C5C5"/>
<path d="M27.8443 489.356V506H25.2925V491.885H25.2006L21.2234 494.482V492.068L25.3615 489.356H27.8443ZM37.9826 506.23C34.5342 506.23 32.0858 504.379 31.9824 501.655H34.5572C34.6492 503.115 36.0975 504.046 37.9596 504.046C39.9712 504.046 41.431 502.954 41.431 501.333C41.431 499.689 40.0631 498.517 37.6837 498.505H36.2584V496.436H37.6837C39.5804 496.448 40.9022 495.39 40.9022 493.793C40.9022 492.275 39.7643 491.241 38.0056 491.241C36.3389 491.241 34.8446 492.172 34.7871 493.678H32.3502C32.4192 490.965 34.925 489.126 38.0286 489.126C41.3046 489.126 43.3621 491.195 43.3391 493.655C43.3621 495.551 42.1896 496.908 40.3965 497.356V497.471C42.6724 497.793 43.9943 499.322 43.9828 501.425C43.9943 504.195 41.431 506.23 37.9826 506.23ZM63.1789 487.356V507.954H60.9719V487.356H63.1789ZM46.2587 502.437C51.7302 499.827 54.4085 496.115 54.8338 491.31H47.2473V489.563H57.0407C57.0407 495.597 54.4774 500.816 47.4082 504.207L46.2587 502.437ZM88.3521 487.356V492.482H91.2948V494.344H88.3521V499.494H86.1682V487.356H88.3521ZM72.0068 497.54C73.6045 497.54 75.4551 497.528 77.3862 497.482V496.322C75.0183 496.103 73.547 495.149 73.57 493.609C73.547 491.931 75.4781 490.942 78.4667 490.942C81.4324 490.942 83.352 491.931 83.3635 493.609C83.352 495.138 81.9036 496.092 79.5702 496.322V497.391C81.4094 497.31 83.2715 497.161 84.9957 496.919L85.1796 498.345C80.7542 499.069 75.8575 499.103 72.2366 499.103L72.0068 497.54ZM72.5355 490.344V488.827H77.3862V487.172H79.5702V488.827H84.421V490.344H72.5355ZM74.7425 501.885V500.368H88.3521V504.667H76.9724V506.23H89.1108V507.747H74.7885V503.264H86.1911V501.885H74.7425ZM75.6391 493.609C75.6391 494.436 76.7081 494.942 78.4667 494.942C80.2024 494.942 81.2829 494.436 81.2714 493.609C81.2829 492.816 80.2024 492.367 78.4667 492.367C76.7081 492.367 75.6391 492.816 75.6391 493.609ZM111.295 497.379V499.126H92.4902V497.379H100.835V495.195H94.8351V488.298H108.974V490.022H96.9961V493.448H109.111V495.195H102.95V497.379H111.295ZM94.7202 504.207C94.7202 501.816 97.3984 500.471 101.87 500.46C106.307 500.471 108.962 501.816 108.974 504.207C108.962 506.598 106.307 507.943 101.87 507.954C97.3984 507.943 94.7202 506.598 94.7202 504.207ZM96.9271 504.207C96.9156 505.529 98.7203 506.253 101.87 506.23C104.973 506.253 106.79 505.529 106.79 504.207C106.79 502.908 104.973 502.161 101.87 502.161C98.7203 502.161 96.9156 502.908 96.9271 504.207ZM129.043 494.689V497.471H137.365V499.264H118.583V497.471H126.882V494.689H129.043ZM119.549 494.046C123.273 493.666 126.193 492.034 126.491 490.045H120.307V488.298H135.687V490.045H129.434C129.744 492.023 132.664 493.666 136.4 494.046L135.618 495.77C132.043 495.356 129.089 493.885 127.963 491.712C126.836 493.885 123.905 495.356 120.33 495.77L119.549 494.046ZM120.813 504.345C120.813 502.034 123.48 500.758 127.963 500.758C132.411 500.758 135.055 502.034 135.066 504.345C135.055 506.644 132.411 507.92 127.963 507.908C123.48 507.92 120.813 506.644 120.813 504.345ZM123.02 504.345C123.008 505.575 124.779 506.253 127.963 506.253C131.101 506.253 132.882 505.575 132.882 504.345C132.882 503.115 131.101 502.448 127.963 502.437C124.779 502.448 123.008 503.115 123.02 504.345ZM157.78 503.655V505.494H138.929V503.655H144.078V500.023H141.228V493.471H153.32V490.597H141.182V488.804H155.481V495.241H143.388V498.23H155.964V500.023H152.837V503.655H157.78ZM146.193 503.655H150.699V500.023H146.193V503.655Z" fill="#C5C5C5"/>
<path d="M33.8375 475.668V472.812L41.6152 465.308C43.8331 463.09 44.9876 461.783 44.9876 459.93C44.9876 457.879 43.3622 456.588 41.2203 456.588C38.9568 456.588 37.4985 458.001 37.5137 460.234H33.7463C33.7311 456.072 36.8605 453.368 41.2507 453.368C45.7472 453.368 48.7702 456.056 48.7854 459.748C48.7702 462.224 47.5853 464.229 43.2559 468.316L39.3366 472.204V472.356H49.1196V475.668H33.8375ZM60.6951 475.972C55.3934 475.972 52.2337 471.87 52.2489 464.67C52.2337 457.5 55.4238 453.368 60.6951 453.368C65.9664 453.368 69.1413 457.5 69.1413 464.67C69.1413 471.885 65.9816 475.972 60.6951 475.972ZM56.229 464.67C56.229 469.956 57.9303 472.645 60.6951 472.66C63.4447 472.645 65.1612 469.956 65.1612 464.67C65.1461 459.429 63.4447 456.664 60.6951 456.649C57.9455 456.664 56.2441 459.429 56.229 464.67ZM72.4529 475.668V472.812L80.2307 465.308C82.4486 463.09 83.6031 461.783 83.6031 459.93C83.6031 457.879 81.9776 456.588 79.8357 456.588C77.5723 456.588 76.1139 458.001 76.1291 460.234H72.3618C72.3466 456.072 75.4759 453.368 79.8661 453.368C84.3626 453.368 87.3856 456.056 87.4008 459.748C87.3856 462.224 86.2007 464.229 81.8713 468.316L77.952 472.204V472.356H87.735V475.668H72.4529ZM99.0067 475.972C94.6165 475.972 91.3809 473.344 91.2593 469.713H95.1178C95.2394 471.49 96.9256 472.766 99.0067 472.782C101.468 472.766 103.245 470.989 103.23 468.559C103.245 466.037 101.422 464.26 98.8852 464.244C97.1686 464.229 95.923 464.837 95.2394 466.128H91.5631L92.9 453.671H105.903V456.983H96.1508L95.4824 462.816H95.6951C96.5458 461.859 98.1408 461.161 99.9486 461.145C104.035 461.161 107.073 464.199 107.058 468.437C107.073 472.827 103.761 475.972 99.0067 475.972ZM112.101 475.911C110.795 475.911 109.716 474.848 109.732 473.541C109.716 472.265 110.795 471.217 112.101 471.202C113.362 471.217 114.441 472.265 114.441 473.541C114.441 474.848 113.362 475.911 112.101 475.911ZM124.376 453.671V475.668H120.396V457.53H120.274L115.14 460.811V457.196L120.578 453.671H124.376ZM129.723 475.668V472.812L137.501 465.308C139.719 463.09 140.873 461.783 140.873 459.93C140.873 457.879 139.248 456.588 137.106 456.588C134.842 456.588 133.384 458.001 133.399 460.234H129.632C129.617 456.072 132.746 453.368 137.136 453.368C141.633 453.368 144.656 456.056 144.671 459.748C144.656 462.224 143.471 464.229 139.141 468.316L135.222 472.204V472.356H145.005V475.668H129.723Z" fill="#FF7710"/>
<path d="M316.543 81.8828V80.2276L321.736 74.9929C323.381 73.286 324.198 72.3342 324.198 71.0204C324.198 69.541 322.998 68.5996 321.426 68.5996C319.76 68.5996 318.705 69.6548 318.695 71.248H316.543C316.522 68.5065 318.612 66.6961 321.467 66.6961C324.354 66.6961 326.35 68.5272 326.371 70.9583C326.35 72.6342 325.564 73.9687 322.75 76.7309L319.709 79.8138V79.9379H326.619V81.8828H316.543ZM334.233 82.0897C331.399 82.0897 329.268 80.3621 329.164 77.9723H331.378C331.502 79.2448 332.723 80.1759 334.233 80.1862C336.054 80.1759 337.358 78.862 337.358 77.0826C337.358 75.2619 336.013 73.9377 334.13 73.917C332.93 73.917 332.009 74.3205 331.502 75.2412H329.35L330.323 66.903H338.806V68.8479H332.206L331.709 73.048H331.854C332.475 72.448 333.53 72.0445 334.668 72.0342C337.492 72.0445 339.571 74.1343 339.571 77.0206C339.571 79.969 337.358 82.0897 334.233 82.0897ZM342.923 82.0276C342.116 82.0173 341.444 81.3656 341.454 80.5586C341.444 79.7517 342.116 79.0896 342.923 79.0896C343.72 79.0896 344.382 79.7517 344.392 80.5586C344.382 81.3656 343.72 82.0173 342.923 82.0276ZM351.696 82.0897C348.23 82.0897 346.192 79.2965 346.192 74.3929C346.192 69.5203 348.251 66.6961 351.696 66.6961C355.131 66.6961 357.189 69.5203 357.2 74.3929C357.189 79.2965 355.162 82.0897 351.696 82.0897ZM348.468 74.3929C348.458 78.1275 349.668 80.1241 351.696 80.1241C353.713 80.1241 354.924 78.1275 354.924 74.3929C354.924 70.6686 353.703 68.6306 351.696 68.6203C349.679 68.6306 348.468 70.6686 348.468 74.3929ZM364.876 82.0897C361.772 82.0897 359.569 80.4241 359.476 77.9723H361.793C361.876 79.2862 363.179 80.1241 364.855 80.1241C366.665 80.1241 367.979 79.1413 367.979 77.6827C367.979 76.2033 366.748 75.1481 364.607 75.1378H363.324V73.2756H364.607C366.314 73.286 367.503 72.3342 367.503 70.8962C367.503 69.5307 366.479 68.5996 364.896 68.5996C363.396 68.5996 362.051 69.4376 362 70.7928H359.807C359.869 68.3513 362.124 66.6961 364.917 66.6961C367.865 66.6961 369.717 68.5582 369.697 70.7721C369.717 72.479 368.662 73.6998 367.048 74.1032V74.2067C369.097 74.4964 370.286 75.8723 370.276 77.7654C370.286 80.2586 367.979 82.0897 364.876 82.0897Z" fill="white"/>
<path d="M297.358 97.3498V109.603H295.174V104.385H291.335V102.591H295.174V97.3498H297.358ZM280.185 107.741C283.381 106.626 285.347 103.844 285.335 101.005V100.545H280.875V98.7752H291.979V100.545H287.565V100.982C287.554 103.591 289.416 106.132 292.531 107.189L291.404 108.913C289.094 108.12 287.393 106.465 286.496 104.431C285.599 106.729 283.795 108.58 281.335 109.488L280.185 107.741ZM283.496 114.063C283.484 111.615 286.128 110.189 290.462 110.178C294.772 110.189 297.416 111.615 297.427 114.063C297.416 116.511 294.772 117.937 290.462 117.948C286.128 117.937 283.484 116.511 283.496 114.063ZM285.657 114.063C285.645 115.454 287.439 116.247 290.462 116.224C293.462 116.247 295.255 115.454 295.266 114.063C295.255 112.661 293.462 111.868 290.462 111.879C287.439 111.868 285.645 112.661 285.657 114.063ZM317.658 97.3498V117.948H315.451V97.3498H317.658ZM300.738 112.431C306.209 109.822 308.888 106.109 309.313 101.304H301.726V99.5568H311.52C311.52 105.591 308.957 110.81 301.887 114.201L300.738 112.431ZM327.153 102.982C327.153 106.27 328.532 109.776 331.291 111.465L330.072 113.143C328.141 111.983 326.842 109.925 326.13 107.546C325.382 110.155 323.957 112.385 321.957 113.603L320.601 111.971C323.509 110.224 325.049 106.58 325.038 103.074V99.2349H327.153V102.982ZM329.061 106.408V104.591H332.256V97.7406H334.325V116.937H332.256V106.408H329.061ZM336.509 117.948V97.3498H338.601V117.948H336.509ZM348.487 101.074C348.498 104.04 350.337 106.879 353.406 108.063L352.211 109.764C349.969 108.856 348.303 107.051 347.429 104.821C346.544 107.224 344.797 109.132 342.394 110.086L341.222 108.339C344.395 107.166 346.314 104.235 346.326 101.074V98.5223H348.487V101.074ZM344.946 117.511V111.166H347.153V115.741H358.855V117.511H344.946ZM352.211 106.224V104.454H356.211V102.063H352.211V100.292H356.211V97.3728H358.395V112.707H356.211V106.224H352.211ZM374.878 102.591C374.855 106.35 377.131 110.143 380.327 111.557L379.016 113.281C376.648 112.155 374.775 109.845 373.809 107.028C372.855 110.051 370.959 112.534 368.487 113.741L367.154 111.902C370.395 110.465 372.671 106.523 372.671 102.591V99.074H374.878V102.591ZM382.189 117.994V97.3498H384.373V117.994H382.189ZM394.856 101.051C394.845 103.683 396.672 106.178 399.822 107.235L398.718 108.936C396.385 108.132 394.672 106.523 393.776 104.499C392.879 106.718 391.086 108.477 388.672 109.327L387.499 107.626C390.718 106.534 392.661 103.867 392.672 101.028V100.476H388.143V98.7062H399.293V100.476H394.856V101.051ZM390.235 112.546V110.776H403.845V117.948H401.661V112.546H390.235ZM401.661 109.764V97.3498H403.845V102.637H406.833V104.477H403.845V109.764H401.661Z" fill="#C5C5C5"/>
<path d="M670.057 81.8828V80.2276L675.251 74.9929C676.896 73.286 677.713 72.3342 677.713 71.0204C677.713 69.541 676.513 68.5996 674.94 68.5996C673.275 68.5996 672.219 69.6548 672.209 71.248H670.057C670.037 68.5065 672.126 66.6961 674.982 66.6961C677.868 66.6961 679.865 68.5272 679.885 70.9583C679.865 72.6342 679.078 73.9687 676.264 76.7309L673.223 79.8138V79.9379H680.134V81.8828H670.057ZM687.748 82.0897C684.913 82.0897 682.782 80.3621 682.678 77.9723H684.892C685.016 79.2448 686.237 80.1759 687.748 80.1862C689.568 80.1759 690.872 78.862 690.872 77.0826C690.872 75.2619 689.527 73.9377 687.644 73.917C686.444 73.917 685.523 74.3205 685.016 75.2412H682.865L683.837 66.903H692.32V68.8479H685.72L685.223 73.048H685.368C685.989 72.448 687.044 72.0445 688.182 72.0342C691.006 72.0445 693.086 74.1343 693.086 77.0206C693.086 79.969 690.872 82.0897 687.748 82.0897ZM696.438 82.0276C695.631 82.0173 694.958 81.3656 694.969 80.5586C694.958 79.7517 695.631 79.0896 696.438 79.0896C697.234 79.0896 697.896 79.7517 697.907 80.5586C697.896 81.3656 697.234 82.0173 696.438 82.0276ZM705.21 82.0897C701.745 82.0897 699.707 79.2965 699.707 74.3929C699.707 69.5203 701.765 66.6961 705.21 66.6961C708.645 66.6961 710.704 69.5203 710.714 74.3929C710.704 79.2965 708.676 82.0897 705.21 82.0897ZM701.983 74.3929C701.972 78.1275 703.183 80.1241 705.21 80.1241C707.228 80.1241 708.438 78.1275 708.438 74.3929C708.438 70.6686 707.217 68.6306 705.21 68.6203C703.193 68.6306 701.983 70.6686 701.983 74.3929ZM718.162 82.0897C715.328 82.0897 713.197 80.3621 713.093 77.9723H715.307C715.431 79.2448 716.652 80.1759 718.162 80.1862C719.983 80.1759 721.287 78.862 721.287 77.0826C721.287 75.2619 719.942 73.9377 718.059 73.917C716.859 73.917 715.938 74.3205 715.431 75.2412H713.28L714.252 66.903H722.735V68.8479H716.135L715.638 73.048H715.783C716.404 72.448 717.459 72.0445 718.597 72.0342C721.421 72.0445 723.501 74.1343 723.501 77.0206C723.501 79.969 721.287 82.0897 718.162 82.0897Z" fill="white"/>
<path d="M642.123 106.89V108.661H633.801V110.638C637.571 110.845 639.813 112.109 639.824 114.27C639.813 116.603 637.146 117.914 632.72 117.902C628.238 117.914 625.571 116.603 625.571 114.27C625.571 112.109 627.812 110.833 631.64 110.638V108.661H623.341V106.89H642.123ZM624.329 104.086C628.031 103.706 630.95 102.028 631.249 100.04H625.065V98.2924H640.445V100.04H634.192C634.491 102.04 637.387 103.706 641.158 104.086L640.376 105.81C636.801 105.396 633.847 103.89 632.732 101.706C631.594 103.89 628.663 105.396 625.088 105.81L624.329 104.086ZM627.778 114.27C627.766 115.523 629.571 116.247 632.72 116.224C635.824 116.247 637.64 115.523 637.64 114.27C637.64 112.994 635.824 112.304 632.72 112.293C629.571 112.304 627.766 112.994 627.778 114.27ZM649.48 98.5453C652.641 98.5453 654.951 100.545 654.974 103.442C654.951 106.316 652.641 108.327 649.48 108.339C646.33 108.327 643.985 106.316 644.008 103.442C643.985 100.545 646.33 98.5453 649.48 98.5453ZM646.146 103.442C646.123 105.27 647.549 106.477 649.48 106.5C651.411 106.477 652.825 105.27 652.836 103.442C652.825 101.626 651.411 100.373 649.48 100.384C647.549 100.373 646.123 101.626 646.146 103.442ZM646.307 113.994C646.307 111.523 648.974 110.074 653.227 110.063C657.434 110.074 660.055 111.523 660.055 113.994C660.055 116.454 657.434 117.914 653.227 117.902C648.974 117.914 646.307 116.454 646.307 113.994ZM648.491 113.994C648.48 115.396 650.25 116.167 653.227 116.155C656.181 116.167 657.928 115.396 657.917 113.994C657.928 112.615 656.181 111.822 653.227 111.833C650.25 111.822 648.48 112.615 648.491 113.994ZM657.687 109.511V97.3498H659.871V102.361H662.859V104.155H659.871V109.511H657.687ZM675.297 98.8901C678.377 98.9016 680.573 101.706 680.584 106.109C680.573 110.557 678.377 113.362 675.297 113.35C672.216 113.362 670.021 110.557 670.032 106.109C670.021 101.706 672.216 98.9016 675.297 98.8901ZM672.124 106.109C672.113 109.385 673.423 111.396 675.297 111.396C677.205 111.396 678.492 109.385 678.492 106.109C678.492 102.879 677.205 100.856 675.297 100.844C673.423 100.856 672.113 102.879 672.124 106.109ZM683.642 117.948V97.3498H685.826V105.419H689.136V107.258H685.826V117.948H683.642ZM707.183 97.3498V117.994H704.999V97.3498H707.183ZM690.837 106.109C690.837 101.706 693.056 98.9016 696.171 98.8901C699.228 98.9016 701.481 101.706 701.481 106.109C701.481 110.557 699.228 113.362 696.171 113.35C693.056 113.362 690.837 110.557 690.837 106.109ZM692.952 106.109C692.941 109.385 694.251 111.396 696.171 111.396C698.056 111.396 699.366 109.385 699.366 106.109C699.366 102.879 698.056 100.856 696.171 100.844C694.251 100.856 692.941 102.879 692.952 106.109ZM727.528 97.3498V117.994H725.344V97.3498H727.528ZM711.781 112.937V99.2579H721.643V101.074H713.988V111.074C717.884 111.063 720.39 110.948 723.298 110.431L723.528 112.247C720.448 112.81 717.758 112.925 713.482 112.937H711.781ZM736.402 98.8901C739.207 98.9016 741.241 101.27 741.575 105.074H745.828V97.3498H747.989V117.994H745.828V106.844H741.598C741.356 110.868 739.276 113.362 736.402 113.35C733.333 113.362 731.161 110.557 731.184 106.109C731.161 101.706 733.333 98.9016 736.402 98.8901ZM733.253 106.109C733.264 109.385 734.54 111.396 736.402 111.396C738.264 111.396 739.54 109.385 739.552 106.109C739.54 102.879 738.264 100.856 736.402 100.844C734.54 100.856 733.264 102.879 733.253 106.109ZM769.944 108.913V110.684H751.115V108.913H759.437V106.936H753.575V98.0855H767.645V99.7867H755.782V101.672H767.116V103.327H755.782V105.258H767.783V106.936H761.621V108.913H769.944ZM753.529 117.511V111.948H755.69V115.741H767.989V117.511H753.529Z" fill="#FF7710"/>
<path d="M843.823 199.66V198.005L849.016 192.77C850.661 191.063 851.478 190.112 851.478 188.798C851.478 187.318 850.278 186.377 848.706 186.377C847.04 186.377 845.985 187.432 845.975 189.025H843.823C843.802 186.284 845.892 184.473 848.747 184.473C851.634 184.473 853.63 186.305 853.651 188.736C853.63 190.412 852.844 191.746 850.03 194.508L846.989 197.591V197.715H853.899V199.66H843.823ZM861.513 199.867C858.679 199.867 856.548 198.139 856.444 195.75H858.658C858.782 197.022 860.003 197.953 861.513 197.964C863.334 197.953 864.637 196.639 864.637 194.86C864.637 193.039 863.293 191.715 861.41 191.694C860.21 191.694 859.289 192.098 858.782 193.019H856.63L857.603 184.68H866.086V186.625H859.486L858.989 190.825H859.134C859.755 190.225 860.81 189.822 861.948 189.812C864.772 189.822 866.851 191.912 866.851 194.798C866.851 197.746 864.637 199.867 861.513 199.867ZM870.203 199.805C869.396 199.795 868.724 199.143 868.734 198.336C868.724 197.529 869.396 196.867 870.203 196.867C871 196.867 871.662 197.529 871.672 198.336C871.662 199.143 871 199.795 870.203 199.805ZM878.976 199.867C875.51 199.867 873.472 197.074 873.472 192.17C873.472 187.298 875.531 184.473 878.976 184.473C882.41 184.473 884.469 187.298 884.48 192.17C884.469 197.074 882.442 199.867 878.976 199.867ZM875.748 192.17C875.738 195.905 876.948 197.901 878.976 197.901C880.993 197.901 882.204 195.905 882.204 192.17C882.204 188.446 880.983 186.408 878.976 186.398C876.959 186.408 875.748 188.446 875.748 192.17ZM892.073 199.867C888.814 199.867 886.549 198.108 886.569 195.667C886.549 193.743 887.924 192.17 889.693 191.901V191.819C888.152 191.467 887.128 190.101 887.128 188.467C887.128 186.16 889.207 184.473 892.073 184.473C894.897 184.473 896.987 186.16 896.997 188.467C896.987 190.101 895.942 191.467 894.432 191.819V191.901C896.18 192.17 897.566 193.743 897.577 195.667C897.566 198.108 895.28 199.867 892.073 199.867ZM888.887 195.501C888.856 196.97 890.097 197.984 892.073 197.984C894.018 197.984 895.259 196.97 895.259 195.501C895.259 193.96 893.914 192.832 892.073 192.832C890.211 192.832 888.856 193.96 888.887 195.501ZM889.342 188.674C889.352 190.07 890.469 191.043 892.073 191.032C893.635 191.043 894.773 190.081 894.763 188.674C894.773 187.277 893.676 186.325 892.073 186.336C890.428 186.325 889.352 187.277 889.342 188.674Z" fill="white"/>
<path d="M836.358 224.668V226.438H828.036V228.415C831.806 228.622 834.048 229.886 834.059 232.047C834.048 234.381 831.381 235.691 826.956 235.68C822.473 235.691 819.806 234.381 819.806 232.047C819.806 229.886 822.048 228.61 825.875 228.415V226.438H817.576V224.668H836.358ZM818.565 221.863C822.266 221.484 825.186 219.805 825.484 217.817H819.3V216.07H834.68V217.817H828.427C828.726 219.817 831.623 221.484 835.393 221.863L834.611 223.587C831.036 223.173 828.082 221.668 826.967 219.484C825.829 221.668 822.898 223.173 819.323 223.587L818.565 221.863ZM822.013 232.047C822.002 233.3 823.806 234.024 826.956 234.001C830.059 234.024 831.875 233.3 831.875 232.047C831.875 230.771 830.059 230.082 826.956 230.07C823.806 230.082 822.002 230.771 822.013 232.047ZM843.715 216.323C846.876 216.323 849.186 218.323 849.209 221.219C849.186 224.093 846.876 226.105 843.715 226.116C840.565 226.105 838.22 224.093 838.243 221.219C838.22 218.323 840.565 216.323 843.715 216.323ZM840.381 221.219C840.358 223.047 841.784 224.254 843.715 224.277C845.646 224.254 847.06 223.047 847.071 221.219C847.06 219.403 845.646 218.15 843.715 218.162C841.784 218.15 840.358 219.403 840.381 221.219ZM840.542 231.771C840.542 229.3 843.209 227.852 847.462 227.84C851.669 227.852 854.29 229.3 854.29 231.771C854.29 234.231 851.669 235.691 847.462 235.68C843.209 235.691 840.542 234.231 840.542 231.771ZM842.726 231.771C842.715 233.174 844.485 233.944 847.462 233.932C850.416 233.944 852.163 233.174 852.152 231.771C852.163 230.392 850.416 229.599 847.462 229.61C844.485 229.599 842.715 230.392 842.726 231.771ZM851.922 227.289V215.127H854.106V220.139H857.095V221.932H854.106V227.289H851.922ZM874.199 218.53V220.3H863.968V218.53H868.015V215.725H870.176V218.53H874.199ZM864.635 226.277C864.624 223.507 866.509 221.541 869.095 221.541C871.704 221.541 873.567 223.507 873.578 226.277C873.567 229.093 871.704 231.07 869.095 231.059C866.509 231.07 864.624 229.093 864.635 226.277ZM866.566 226.277C866.555 228.024 867.612 229.197 869.095 229.197C870.578 229.197 871.647 228.024 871.647 226.277C871.647 224.564 870.578 223.369 869.095 223.357C867.612 223.369 866.555 224.564 866.566 226.277ZM875.141 234.76V215.587H877.21V223.702H879.578V215.127H881.647V235.726H879.578V225.495H877.21V234.76H875.141ZM894.866 217.219C894.855 223.288 892.878 228.691 885.555 232.415L884.337 230.76C887.946 228.921 890.176 226.702 891.429 224.081L884.751 224.714L884.406 222.829L892.096 222.346C892.418 221.288 892.613 220.162 892.694 218.989H885.463V217.219H894.866ZM894.82 225.082V223.288H899.349V215.127H901.51V235.726H899.349V225.082H894.82ZM923.488 226.691V228.461H904.66V226.691H912.982V224.714H907.119V215.863H921.189V217.564H909.326V219.449H920.66V221.104H909.326V223.035H921.327V224.714H915.166V226.691H923.488ZM907.073 235.289V229.725H909.234V233.519H921.534V235.289H907.073Z" fill="#FF7710"/>
<path d="M669.326 435.219V433.564L674.519 428.329C676.164 426.622 676.981 425.67 676.981 424.356C676.981 422.877 675.781 421.936 674.209 421.936C672.543 421.936 671.488 422.991 671.478 424.584H669.326C669.305 421.842 671.395 420.032 674.25 420.032C677.137 420.032 679.133 421.863 679.154 424.294C679.133 425.97 678.347 427.305 675.533 430.067L672.492 433.15V433.274H679.402V435.219H669.326ZM687.016 435.426C684.182 435.426 682.05 433.698 681.947 431.308H684.161C684.285 432.581 685.506 433.512 687.016 433.522C688.837 433.512 690.14 432.198 690.14 430.419C690.14 428.598 688.796 427.274 686.913 427.253C685.713 427.253 684.792 427.656 684.285 428.577H682.133L683.106 420.239H691.589V422.184H684.989L684.492 426.384H684.637C685.257 425.784 686.313 425.38 687.451 425.37C690.275 425.38 692.354 427.47 692.354 430.357C692.354 433.305 690.14 435.426 687.016 435.426ZM695.706 435.364C694.899 435.353 694.227 434.701 694.237 433.895C694.227 433.088 694.899 432.426 695.706 432.426C696.503 432.426 697.165 433.088 697.175 433.895C697.165 434.701 696.503 435.353 695.706 435.364ZM704.479 435.426C701.013 435.426 698.975 432.632 698.975 427.729C698.975 422.856 701.034 420.032 704.479 420.032C707.913 420.032 709.972 422.856 709.982 427.729C709.972 432.632 707.944 435.426 704.479 435.426ZM701.251 427.729C701.241 431.463 702.451 433.46 704.479 433.46C706.496 433.46 707.707 431.463 707.707 427.729C707.707 424.005 706.486 421.967 704.479 421.956C702.462 421.967 701.251 424.005 701.251 427.729ZM717.493 420.032C720.245 420.053 723.131 421.708 723.142 427.191C723.142 432.446 720.876 435.426 717.286 435.426C714.524 435.426 712.6 433.719 712.238 431.288H714.493C714.803 432.55 715.776 433.429 717.286 433.439C719.593 433.429 720.948 431.422 720.969 427.998H720.783C719.976 429.26 718.569 430.025 716.955 430.025C714.265 430.025 712.114 427.967 712.114 425.101C712.114 422.246 714.234 420.011 717.493 420.032ZM714.327 425.06C714.338 426.798 715.631 428.174 717.452 428.163C719.262 428.174 720.659 426.694 720.659 425.039C720.659 423.415 719.324 421.936 717.493 421.936C715.683 421.936 714.317 423.342 714.327 425.06Z" fill="white"/>
<path d="M623.797 469.33V467.491L629.567 461.675C631.395 459.778 632.303 458.721 632.303 457.261C632.303 455.617 630.969 454.571 629.222 454.571C627.372 454.571 626.199 455.743 626.188 457.514H623.797C623.774 454.468 626.096 452.456 629.268 452.456C632.475 452.456 634.694 454.49 634.717 457.192C634.694 459.054 633.82 460.537 630.694 463.606L627.314 467.031V467.169H634.993V469.33H623.797ZM649.384 452.778V454.525H637.108V452.778H642.165V450.594H644.349V452.778H649.384ZM638.234 459.192C638.223 456.939 640.269 455.468 643.246 455.445C646.211 455.468 648.234 456.939 648.234 459.192C648.234 461.456 646.211 462.939 643.246 462.939C640.269 462.939 638.223 461.456 638.234 459.192ZM639.659 466.387V464.617H653.269V471.284H651.085V466.387H639.659ZM640.349 459.192C640.326 460.468 641.499 461.238 643.246 461.238C644.993 461.238 646.165 460.468 646.188 459.192C646.165 457.927 644.993 457.134 643.246 457.123C641.499 457.134 640.326 457.927 640.349 459.192ZM651.085 463.56V450.686H653.269V456.272H656.258V458.088H653.269V463.56H651.085ZM674.557 450.686V471.284H672.35V450.686H674.557ZM657.637 465.767C663.108 463.157 665.787 459.445 666.212 454.64H658.626V452.893H668.419C668.419 458.927 665.856 464.146 658.786 467.537L657.637 465.767ZM689.799 456.318C689.799 459.606 691.178 463.111 693.937 464.801L692.719 466.479C690.788 465.318 689.489 463.261 688.776 460.882C688.029 463.491 686.604 465.721 684.603 466.939L683.247 465.307C686.155 463.56 687.696 459.916 687.684 456.41V452.571H689.799V456.318ZM691.707 459.744V457.927H694.903V451.077H696.972V470.273H694.903V459.744H691.707ZM699.156 471.284V450.686H701.248V471.284H699.156ZM711.133 454.41C711.145 457.376 712.984 460.215 716.053 461.399L714.857 463.1C712.616 462.192 710.949 460.387 710.076 458.157C709.19 460.56 707.443 462.468 705.041 463.422L703.868 461.675C707.041 460.502 708.961 457.571 708.972 454.41V451.858H711.133V454.41ZM707.593 470.847V464.502H709.8V469.077H721.501V470.847H707.593ZM714.857 459.56V457.789H718.857V455.399H714.857V453.628H718.857V450.709H721.041V466.043H718.857V459.56H714.857ZM737.525 455.927C737.502 459.686 739.778 463.479 742.973 464.893L741.663 466.617C739.295 465.491 737.421 463.18 736.456 460.364C735.502 463.387 733.605 465.87 731.134 467.077L729.8 465.238C733.042 463.801 735.318 459.858 735.318 455.927V452.41H737.525V455.927ZM744.835 471.33V450.686H747.019V471.33H744.835ZM757.502 454.387C757.491 457.019 759.319 459.514 762.468 460.571L761.365 462.272C759.031 461.468 757.319 459.858 756.422 457.835C755.525 460.054 753.732 461.813 751.318 462.663L750.146 460.962C753.364 459.87 755.307 457.203 755.319 454.364V453.812H750.79V452.042H761.939V453.812H757.502V454.387ZM752.882 465.882V464.112H766.491V471.284H764.307V465.882H752.882ZM764.307 463.1V450.686H766.491V455.973H769.48V457.812H766.491V463.1H764.307Z" fill="#C5C5C5"/>
<path d="M319.274 435.219V433.564L324.467 428.329C326.112 426.622 326.93 425.67 326.93 424.356C326.93 422.877 325.73 421.936 324.157 421.936C322.491 421.936 321.436 422.991 321.426 424.584H319.274C319.253 421.842 321.343 420.032 324.198 420.032C327.085 420.032 329.081 421.863 329.102 424.294C329.081 425.97 328.295 427.305 325.481 430.067L322.44 433.15V433.274H329.35V435.219H319.274ZM336.964 435.426C334.13 435.426 331.999 433.698 331.895 431.308H334.109C334.233 432.581 335.454 433.512 336.964 433.522C338.785 433.512 340.089 432.198 340.089 430.419C340.089 428.598 338.744 427.274 336.861 427.253C335.661 427.253 334.74 427.656 334.233 428.577H332.081L333.054 420.239H341.537V422.184H334.937L334.44 426.384H334.585C335.206 425.784 336.261 425.38 337.399 425.37C340.223 425.38 342.303 427.47 342.303 430.357C342.303 433.305 340.089 435.426 336.964 435.426ZM345.654 435.364C344.847 435.353 344.175 434.701 344.185 433.895C344.175 433.088 344.847 432.426 345.654 432.426C346.451 432.426 347.113 433.088 347.123 433.895C347.113 434.701 346.451 435.353 345.654 435.364ZM353.641 420.239V435.219H351.344V422.515H351.261L347.682 424.853V422.68L351.406 420.239H353.641ZM357.448 435.219V433.564L362.641 428.329C364.286 426.622 365.103 425.67 365.103 424.356C365.103 422.877 363.903 421.936 362.331 421.936C360.665 421.936 359.61 422.991 359.6 424.584H357.448C357.427 421.842 359.517 420.032 362.372 420.032C365.258 420.032 367.255 421.863 367.276 424.294C367.255 425.97 366.469 427.305 363.655 430.067L360.613 433.15V433.274H367.524V435.219H357.448Z" fill="white"/>
<path d="M298.968 460.226V461.996H290.646V463.974C294.416 464.18 296.657 465.445 296.669 467.606C296.657 469.939 293.991 471.25 289.565 471.238C285.082 471.25 282.415 469.939 282.415 467.606C282.415 465.445 284.657 464.169 288.485 463.974V461.996H280.185V460.226H298.968ZM281.174 457.422C284.875 457.042 287.795 455.364 288.094 453.376H281.91V451.628H297.289V453.376H291.036C291.335 455.376 294.232 457.042 298.002 457.422L297.221 459.146C293.646 458.732 290.692 457.226 289.577 455.042C288.439 457.226 285.507 458.732 281.933 459.146L281.174 457.422ZM284.622 467.606C284.611 468.859 286.416 469.583 289.565 469.56C292.669 469.583 294.485 468.859 294.485 467.606C294.485 466.33 292.669 465.64 289.565 465.629C286.416 465.64 284.611 466.33 284.622 467.606ZM306.324 451.881C309.485 451.881 311.796 453.881 311.819 456.778C311.796 459.652 309.485 461.663 306.324 461.675C303.175 461.663 300.83 459.652 300.853 456.778C300.83 453.881 303.175 451.881 306.324 451.881ZM302.991 456.778C302.968 458.606 304.393 459.813 306.324 459.836C308.255 459.813 309.669 458.606 309.681 456.778C309.669 454.962 308.255 453.709 306.324 453.72C304.393 453.709 302.968 454.962 302.991 456.778ZM303.152 467.33C303.152 464.859 305.818 463.41 310.072 463.399C314.279 463.41 316.899 464.859 316.899 467.33C316.899 469.79 314.279 471.25 310.072 471.238C305.818 471.25 303.152 469.79 303.152 467.33ZM305.336 467.33C305.324 468.732 307.094 469.502 310.072 469.491C313.026 469.502 314.773 468.732 314.761 467.33C314.773 465.951 313.026 465.158 310.072 465.169C307.094 465.158 305.324 465.951 305.336 467.33ZM314.531 462.847V450.686H316.715V455.697H319.704V457.491H316.715V462.847H314.531ZM344.326 450.686V471.284H342.211V450.686H344.326ZM327.359 466.433V453.146H335.176V454.939H329.497V464.617C332.187 464.594 334.003 464.479 336.141 464.02L336.325 465.859C333.969 466.33 331.934 466.433 328.716 466.433H327.359ZM333.773 460.249V458.433H338.004V451.123H340.073V470.25H338.004V460.249H333.773ZM365.821 466.893V468.709H346.969V466.893H355.268V462.134H349.13V452.341H363.568V462.134H357.429V466.893H365.821ZM351.245 460.41H361.43V454.088H351.245V460.41ZM385.017 450.686V471.284H382.902V450.686H385.017ZM368.051 466.433V453.146H375.867V454.939H370.189V464.617C372.878 464.594 374.694 464.479 376.832 464.02L377.016 465.859C374.66 466.33 372.625 466.433 369.407 466.433H368.051ZM374.465 460.249V458.433H378.695V451.123H380.764V470.25H378.695V460.249H374.465ZM404.718 450.686V471.33H402.534V450.686H404.718ZM388.373 459.445C388.373 455.042 390.591 452.238 393.707 452.226C396.764 452.238 399.017 455.042 399.017 459.445C399.017 463.893 396.764 466.698 393.707 466.686C390.591 466.698 388.373 463.893 388.373 459.445ZM390.488 459.445C390.477 462.721 391.787 464.732 393.707 464.732C395.592 464.732 396.902 462.721 396.902 459.445C396.902 456.215 395.592 454.192 393.707 454.18C391.787 454.192 390.477 456.215 390.488 459.445Z" fill="#FF7710"/>
<path d="M307.094 485.774V487.981C307.071 490.567 307.071 493.28 306.336 497.223L304.198 496.993C304.922 493.269 304.922 490.51 304.91 487.981V487.544H292.289V485.774H307.094ZM290.358 501.614V499.798H294.795V493.131H296.979V499.798H299.945V493.131H302.083V499.798H309.14V501.614H290.358ZM328.337 483.797V504.395H326.244V493.843H323.601V503.338H321.555V484.211H323.601V492.05H326.244V483.797H328.337ZM311.669 499.154V486.234H313.853V497.234C315.75 497.211 317.83 497.062 320.175 496.602L320.405 498.51C317.578 499.016 315.221 499.165 313.003 499.154H311.669ZM346.981 487.2V488.97H336.751V487.2H340.797V484.395H342.958V487.2H346.981ZM337.417 494.947C337.406 492.177 339.291 490.211 341.877 490.211C344.486 490.211 346.349 492.177 346.36 494.947C346.349 497.763 344.486 499.74 341.877 499.729C339.291 499.74 337.406 497.763 337.417 494.947ZM339.348 494.947C339.337 496.694 340.394 497.867 341.877 497.867C343.36 497.867 344.429 496.694 344.429 494.947C344.429 493.234 343.36 492.039 341.877 492.027C340.394 492.039 339.337 493.234 339.348 494.947ZM347.923 503.43V484.257H349.992V492.372H352.36V483.797H354.429V504.395H352.36V494.165H349.992V503.43H347.923ZM367.648 485.889C367.637 491.958 365.66 497.361 358.338 501.085L357.119 499.43C360.728 497.591 362.958 495.372 364.211 492.751L357.533 493.384L357.188 491.499L364.878 491.016C365.2 489.958 365.395 488.832 365.476 487.659H358.246V485.889H367.648ZM367.602 493.751V491.958H372.131V483.797H374.292V504.395H372.131V493.751H367.602ZM396.27 495.361V497.131H377.442V495.361H385.764V493.384H379.901V484.533H393.971V486.234H382.108V488.119H393.442V489.774H382.108V491.705H394.109V493.384H387.948V495.361H396.27ZM379.856 503.959V498.395H382.017V502.189H394.316V503.959H379.856Z" fill="white"/>
</svg>
